<svg width="1024" height="1024" viewBox="0 0 1024 1024" fill="none" xmlns="http://www.w3.org/2000/svg">
<rect width="1024" height="1024" rx="4" fill="#50478A"/>
<path d="M287.37 314.457C298.485 314.457 307.496 323.467 307.496 334.583V465.683L439.806 321.001L440.168 320.615C443.956 316.685 449.185 314.457 454.658 314.457H492.709C510.132 314.457 519.265 335.047 507.752 347.954L507.477 348.256L379.508 486.453L515.5 670.822L515.946 671.449C525.003 684.692 515.557 702.894 499.304 702.894H460.497C454.17 702.894 448.21 699.919 444.409 694.862V694.861L326.274 537.717L307.496 554.41V682.768C307.496 693.883 298.485 702.894 287.37 702.894H253.953C242.837 702.894 233.827 693.883 233.827 682.768V334.583C233.827 323.467 242.837 314.457 253.953 314.457H287.37ZM676.547 398.753C711.381 398.753 740.471 407.193 760.678 426.992L761.626 427.937C781.362 447.93 789.638 477.303 789.638 512.574V682.768C789.638 693.883 780.627 702.894 769.512 702.894H737.069C725.954 702.894 716.943 693.883 716.943 682.768V514.036C716.943 494.211 712.351 482.789 706.295 476.44L706.206 476.344C700.495 470.26 690.188 465.599 671.674 465.599C646.296 465.599 631.118 472.37 622.284 482.622C613.225 493.326 606.916 513.381 606.916 546.681V682.768C606.916 693.883 597.905 702.894 586.79 702.894H554.347C543.232 702.894 534.221 693.883 534.221 682.768V423.751C534.221 412.636 543.232 403.625 554.347 403.625H579.893C589.481 403.625 597.714 410.383 599.615 419.738L599.701 420.185L600.237 423.166C606.028 418.626 612.397 414.683 619.313 411.337C636.69 402.845 655.872 398.753 676.547 398.753Z" stroke="white" stroke-width="32.252"/>
</svg>
